<?xml version="1.0" encoding="UTF-8" standalone="no"?>
<!-- Created with Inkscape (http://www.inkscape.org/) -->
<svg
   xmlns:svg="http://www.w3.org/2000/svg"
   xmlns="http://www.w3.org/2000/svg"
   version="1.0"
   width="126.64"
   height="30.400789"
   viewBox="-0.129 -0.052 171 36"
   id="svg2"
   xml:space="preserve">
<defs
   id="defs4">
</defs>







<path
   d="M 73.964441,-0.45142617 C 83.990454,-0.45142617 92.118547,7.6766668 92.118547,17.703705 C 92.118547,27.730741 83.990454,35.858834 73.964441,35.858834 C 63.937405,35.858834 55.809312,27.730741 55.809312,17.703705 C 55.809312,7.6766668 63.937405,-0.45142617 73.964441,-0.45142617 L 73.964441,-0.45142617 z M 73.964441,6.2046016 C 67.612449,6.2046016 62.464316,11.352736 62.464316,17.703705 C 62.464316,24.054673 67.612449,29.20383 73.964441,29.20383 C 80.31541,29.20383 85.463543,24.054673 85.463543,17.703705 C 85.463543,11.352736 80.31541,6.2046016 73.964441,6.2046016 L 73.964441,6.2046016 z"
   id="path6"
   style="fill:#00447c;fill-opacity:1;fill-rule:evenodd" /><path
   d="M 120.26181,6.147275 C 122.08602,6.147275 123.56526,4.6680439 123.56526,2.8438296 C 123.56526,1.0196153 122.08705,-0.45961617 120.26181,-0.45961617 L 90.710974,-0.45961617 C 88.88676,-0.45961617 87.408553,1.0196153 87.408553,2.8438296 C 87.408553,4.6680439 88.88676,6.147275 90.710974,6.147275 L 96.196925,6.147275 L 96.196925,32.410025 C 96.196925,34.23424 97.675133,35.713471 99.500372,35.713471 C 101.32561,35.713471 102.80381,34.235263 102.80381,32.410025 L 102.80381,6.147275 L 107.54759,6.147275 L 107.54759,32.410025 C 107.54759,34.23424 109.02682,35.713471 110.85206,35.713471 C 112.67525,35.713471 114.15448,34.235263 114.15448,32.410025 L 114.15448,6.147275 L 120.26181,6.147275 L 120.26181,6.147275 z"
   id="path8"
   style="fill:#00447c;fill-opacity:1;fill-rule:evenodd" /><path
   d="M 147.16846,7.5067344 C 145.55308,6.6417169 143.74422,6.2046016 141.78488,6.2046016 C 135.43391,6.2046016 130.28475,11.352736 130.28475,17.703705 C 130.28475,23.750637 134.95278,28.708365 140.88198,29.169025 L 160.28704,1.5324836 C 160.79786,0.36957263 161.95667,-0.44426017 163.30794,-0.44426017 C 165.13216,-0.44426017 166.61139,1.0349706 166.61139,2.859185 L 166.61139,32.409002 C 166.61139,34.233216 165.13318,35.712447 163.30794,35.712447 C 161.48271,35.712447 160.0045,34.23424 160.0045,32.409002 L 160.0045,13.214827 L 159.98505,13.480986 L 145.79876,33.826811 C 144.75972,35.349037 142.8229,35.833242 141.78488,35.856787 C 132.65357,35.856787 125.12024,29.109651 123.84165,20.333563 L 123.84165,32.407978 C 123.84165,34.232192 122.36344,35.711423 120.53821,35.711423 C 118.71297,35.711423 117.23476,34.233216 117.23476,32.407978 L 117.23476,12.132787 C 117.23476,10.308573 118.71297,8.829341 120.53821,8.829341 C 122.36344,8.829341 123.84165,10.308573 123.84165,12.132787 L 123.84165,15.071799 C 125.12024,6.2957099 132.65357,-0.45142617 141.78488,-0.45142617 C 144.9921,-0.45142617 148.04371,0.43918353 150.65924,1.8989644 C 151.55599,2.4896331 152.14666,3.5051329 152.14666,4.6588307 C 152.14666,6.4830451 150.66743,7.9622761 148.84321,7.9622761 C 148.23207,7.9622761 147.65983,7.7954148 147.16846,7.5067344 L 147.16846,7.5067344 z"
   id="path10"
   style="fill:#00447c;fill-opacity:1;fill-rule:evenodd" /><path
   d="M 59.231505,30.328865 L 48.801135,17.442664 L 58.860929,5.0150746 C 60.009509,3.5972649 59.790439,1.518152 58.37263,0.36957263 C 56.95482,-0.77900717 54.874683,-0.55993717 53.727127,0.85787243 L 44.550777,12.193185 L 35.577116,1.1066289 C 34.99259,0.17814283 33.964806,-0.44323717 32.786539,-0.44323717 C 30.962325,-0.44323717 29.483094,1.0359943 29.483094,2.8602086 L 29.480023,15.247874 C 29.480023,17.855211 27.366105,19.970153 24.758768,19.970153 C 22.150407,19.970153 20.036489,17.855211 20.036489,15.247874 L 20.033418,2.8602086 C 20.033418,1.0359943 18.554187,-0.44323717 16.729972,-0.44323717 C 14.905758,-0.44323717 13.426527,1.0359943 13.426527,2.8602086 L 13.428574,15.247874 C 13.428574,21.503639 18.500955,26.57602 24.757744,26.57602 C 31.014533,26.57602 36.08589,21.503639 36.08589,15.247874 L 36.086914,12.239251 L 40.300419,17.443687 L 29.869025,30.328865 C 28.721469,31.746675 28.940539,33.826811 30.358348,34.974367 C 31.776158,36.122946 33.856295,35.903877 35.00385,34.486067 L 44.550777,22.692143 L 54.098727,34.486067 C 55.246282,35.903877 57.326419,36.122946 58.744229,34.974367 C 60.162038,33.826811 60.381108,31.745651 59.231505,30.328865 L 59.231505,30.328865 z"
   id="path16"
   style="fill:#00447c;fill-opacity:1;fill-rule:evenodd" /><path
   d="M 24.758768,29.021614 L 11.175435,29.021614 L 11.175435,2.8602086 C 11.175435,1.0359943 9.6972284,-0.44323717 7.8719904,-0.44323717 C 6.0467524,-0.44323717 4.5695687,1.0349706 4.5695687,2.8602086 L 4.5695687,32.410025 C 4.5695687,34.23424 6.0477761,35.713471 7.8730141,35.713471 C 8.1217706,35.713471 8.3633613,35.680713 8.5967624,35.628504 L 24.759792,35.628504 C 26.584006,35.628504 28.063237,34.150297 28.063237,32.325059 C 28.063237,30.499821 26.582982,29.021614 24.758768,29.021614 L 24.758768,29.021614 z"
   id="path18"
   style="fill:#00447c;fill-opacity:1;fill-rule:evenodd" /></svg>