<?xml version="1.0" encoding="utf-8"?>
<!-- Generator: Adobe Illustrator 16.0.0, SVG Export Plug-In . SVG Version: 6.00 Build 0)  -->
<!DOCTYPE svg PUBLIC "-//W3C//DTD SVG 1.1//EN" "http://www.w3.org/Graphics/SVG/1.1/DTD/svg11.dtd">
<svg version="1.1" id="Layer_1" xmlns="http://www.w3.org/2000/svg" xmlns:xlink="http://www.w3.org/1999/xlink" x="0px" y="0px"
	 width="441.875px" height="51.125px" viewBox="0 0 441.875 51.125" enable-background="new 0 0 441.875 51.125"
	 xml:space="preserve">
<g>
	<path fill="#0F6735" d="M369.77,7.464c-12.752,0-17.553,10.301-17.553,18.27c0,8.252,4.932,18.273,17.127,18.273
		c10.795,0,17.596-8.438,17.596-19.111C386.939,14.222,380.352,7.464,369.77,7.464 M371.014,41.516
		c-7.75,0-12.395-7.615-12.395-17.217c0-11.492,5.289-14.443,9.932-14.443c6.625,0,11.83,6.413,11.83,16.751
		C380.381,39.945,373.84,41.516,371.014,41.516z"/>
	<path fill="#0F6735" d="M236.93,44.094c2.838,0,5.82-0.42,8.451-1.914c3.787-2.195,4.865-5.416,4.783-8.123
		c-0.131-4.438-2.58-7.563-9.131-11.902l-1.525-0.98c-4.531-2.943-5.811-4.578-5.873-6.727c-0.084-2.799,2.264-4.806,6.223-4.806
		c3.477,0,5.068,1.399,5.898,2.288c1.158,1.212,1.471,2.659,1.484,3.077c0.018,0.562,0.186,0.843,0.561,0.843
		c0.426,0,0.576-0.372,0.545-1.402c-0.109-3.639,0.064-4.993,0.047-5.604c-0.012-0.323-0.283-0.465-0.766-0.559
		c-1.4-0.324-3.66-0.79-7.141-0.79c-7.434,0-12.244,3.685-12.092,8.822c0.113,3.781,2.244,7.048,8.25,11.064l2.512,1.682
		c4.529,2.984,5.398,5.182,5.465,7.469c0.074,2.475-2.193,5.32-7.008,5.32c-3.316,0-6.51-1.26-7.789-4.715
		c-0.295-0.793-0.535-1.771-0.557-2.381c-0.01-0.373-0.074-0.793-0.557-0.793c-0.428,0-0.572,0.514-0.605,1.213
		c-0.031,0.748-0.162,3.551-0.084,6.117c0.029,1.023,0.197,1.262,1.063,1.586C231.412,43.766,233.828,44.094,236.93,44.094"/>
	<path fill="#0F6735" d="M353.553,42.193c-0.555,0-1.229-0.043-1.867-0.186c-0.896-0.227-1.746-1.244-2.135-5.383
		c-0.65-6.99-1.877-25.761-2.119-28.297c-0.084-0.846-0.936-1.028-1.461-0.641c-0.393,0.286-0.932,1.104-1.475,1.848
		c-8.266,11.272-12.822,17.364-21.225,28.725c-1.465,1.982-2.654,4.146-5.451,4.012c-1.193-0.059-1.652-1.199-1.789-2.484
		c-0.229-1.98-0.229-5.611-0.229-9.842V11.554c0-0.504,0.139-0.782,0.365-0.876c0.416-0.139,1.104-0.18,1.797-0.18
		c1.055,0,3.748,0.137,5.4,1.647c2.574,2.304,2.547,5.427,2.547,6.942c0,4.695-3.725,7.688-6.299,7.688
		c-0.969,0-1.791,0.137-1.791,0.506c0,0.318,0.324,0.369,0.553,0.414c0.232,0.041,2.191,0.115,2.422,0.115
		c6.529,0,11.199-3.924,11.313-11.126c0.033-2.435-1.301-4.494-2.301-5.472c-1.316-1.28-4.26-2.692-10.01-2.692
		c-2.115,0-4.777,0.142-6.664,0.142c-1.121,0-7.504-0.273-7.797-0.273c-1.561,0-3.119,0.139-4.029,0.139
		c-0.865,0-2.844-0.139-4.979-0.139c-0.619,0-1.072,0.048-1.072,0.418c0,0.272,0.164,0.409,0.66,0.409c0.574,0,1.563,0,2.18,0.273
		c0.986,0.464,1.357,1.331,1.398,4.136l0.119,17.868c-0.699-0.736-21.049-23.271-21.65-23.729c-0.775-0.582-1.572-0.043-1.572,0.684
		l-0.762,23.112c-7.217-8.965-18.654-23.242-18.963-23.692c-0.471-0.686-1.621-0.476-1.699,0.509
		c-0.1,1.311-2.074,29.841-2.074,29.841c-0.072,2.273-0.379,3.822-2.42,4.09c-0.355,0.051-0.99,0.092-1.412,0.092
		c-0.373,0-0.525,0.094-0.422,0.363c0.139,0.367,0.451,0.459,1.061,0.459c2.424,0,4.934-0.139,5.449-0.139
		c1.447,0,3.502,0.139,4.994,0.139c0.51,0,0.758-0.092,0.621-0.459c-0.102-0.27-0.275-0.363-0.836-0.363h-0.699
		c-1.445,0-2.086-0.59-2.396-1.408c-0.209-0.545-0.387-1.637-0.348-2.773l0.064-6.496c-0.014-0.279,0.047-0.367,0.283-0.367h9.91
		c0.23,0,0.406,0.088,0.584,0.322l7.354,9.029c0.193,0.238,0.285,0.662-0.078,1.02c-0.07,0.066-0.309,0.227-0.484,0.283
		c-0.576,0.186-1.469,0.137-2.006,0.137c-0.414,0-0.428,0.264-0.428,0.539c0,0.416,0.379,0.504,0.914,0.504
		c2.143,0,4.078-0.047,4.443-0.047l4.418-0.008c1.412,0.027,2.76,0.086,3.584,0.088c1.814,0,2.107-0.092,1.975-0.459
		c-0.121-0.32,0.018-0.48-0.357-0.48c-0.559,0-0.615,0.029-1.367-0.111c-1.066-0.225-2.332-1.535-5.648-5.629l-0.695-0.865
		L278.678,19c0.744,0.875,19.129,20.881,21.723,23.633c0.451,0.508,0.945,1.014,1.395,1.014c0.375,0,0.537-0.414,0.537-1.428
		l0.453-28.963c0.041-2.569,0.344-3.617,1.52-3.9c0.441-0.106,1.645-0.129,2.539,0.061c1.514,0.319,1.887,1.056,1.979,2.619
		c0.092,1.474,0.092,2.759,0.092,9.747l0.002,8.094c0,4.227,0,7.861-0.234,9.793c-0.182,1.33-0.412,2.346-1.332,2.527
		c-0.412,0.092-0.967,0.188-1.656,0.188c-0.549,0-0.734,0.135-0.734,0.365c0,0.32,0.324,0.457,0.918,0.457
		c1.84,0,6.061-0.207,6.277-0.195c4.215,0.223,7.914,0.16,9.951,0.092c1.682-0.059,4.168,0.219,4.793,0.219
		c0.51,0,0.93-0.076,0.936-0.465c0-0.217-0.137-0.369-0.57-0.369h-0.691c-1.424,0-1.254-0.635-0.754-1.361l6.541-9.439
		c0.18-0.277,0.303-0.371,0.533-0.371l9.244-0.043c0.229,0,0.336,0.092,0.354,0.322l0.369,9.602c0.049,0.553-0.406,0.971-0.76,1.059
		c-0.477,0.049-0.783,0.092-0.77,0.498c0.016,0.389,0.406,0.449,1.25,0.428c1.668-0.037,2.951-0.078,4.836-0.051
		c1.67,0.023,3.381,0.16,4.279,0.16c1.699,0,2.293-0.229,2.416-0.596C354.215,42.373,353.92,42.193,353.553,42.193 M264.883,29.078
		h-7.975c-0.189,0-0.287-0.131-0.309-0.316l0.334-9.229c0.008-0.164-0.014-0.387,0.127-0.404s0.166,0.133,0.307,0.301
		c0.357,0.451,7.645,9.377,7.645,9.377C265.111,28.947,265.115,29.078,264.883,29.078z M342.016,29.059l-7.492-0.041
		c-0.082,0-0.25-0.1-0.094-0.322c0.717-1.039,5.17-7.451,7.088-10.197c0.127-0.182,0.303-0.121,0.309,0.059
		c0.059,1.375,0.514,10.223,0.514,10.223C342.34,28.916,342.248,29.059,342.016,29.059z"/>
	<path fill="#0F6735" d="M424.084,7.464c-12.748,0-17.551,10.301-17.551,18.27c0,3.863,1.082,8.109,3.477,11.539
		c-0.197,0.807-0.65,1.766-1.107,2.258c-1.148,1.244-4.035,1.285-6.471,1.285c-3.588,0-3.834-0.322-4.611-1.008
		c-0.967-0.824-0.967-3.998-0.967-9.887v-8.09c0-6.988,0-8.276,0.092-9.749c0.094-1.607,0.459-2.39,1.699-2.622
		c0.553-0.089,1.291-0.137,1.797-0.137c0.549,0,0.828-0.086,0.828-0.413c0-0.321-0.324-0.412-0.969-0.412
		c-1.791,0-6.174,0.137-7.277,0.137c-1.242,0-4.252-0.137-6.412-0.137c-0.691,0-1.01,0.091-1.01,0.412
		c0,0.327,0.273,0.413,0.777,0.413c0.6,0,1.152,0.048,1.52,0.137c1.518,0.321,1.887,1.061,1.979,2.622
		c0.092,1.473,0.092,2.761,0.092,9.749v8.09c0,4.236,0,7.863-0.23,9.799c-0.184,1.328-0.412,2.342-1.332,2.527
		c-0.416,0.092-0.967,0.18-1.658,0.18c-0.549,0-0.734,0.143-0.734,0.371c0,0.318,0.324,0.459,0.922,0.459
		c1.836,0,4.846-0.141,5.904-0.141c3.725,0,7.928,0.277,14.543,0.277c2.393,0,2.627-0.227,2.9-1.242
		c0.23-0.842,0.443-2.525,0.57-3.775c2.764,3.32,6.945,5.631,12.809,5.631c10.795,0,17.592-8.438,17.592-19.111
		C441.254,14.222,434.668,7.464,424.084,7.464 M425.334,41.516c-7.756,0-12.396-7.615-12.396-17.217
		c0-11.492,5.287-14.443,9.932-14.443c6.621,0,11.83,6.413,11.83,16.751C434.699,39.945,428.158,41.516,425.334,41.516z"/>
	<path fill="#0F6735" d="M147.539,42.816c-0.557,0-1.229-0.041-1.871-0.186c-0.891-0.225-1.744-1.244-2.133-5.385
		c-0.65-6.988-1.873-25.76-2.121-28.296c-0.078-0.848-0.934-1.024-1.461-0.643c-0.389,0.288-0.93,1.106-1.475,1.85
		c-6.365,8.687-10.539,14.302-15.957,21.617c-0.826-3.34-3.434-6.098-8.832-9.676l-1.527-0.979
		c-4.529-2.941-5.807-4.577-5.871-6.723c-0.086-2.801,2.262-4.811,6.223-4.811c3.475,0,5.068,1.402,5.898,2.288
		c1.158,1.215,1.469,2.662,1.482,3.082c0.018,0.56,0.186,0.841,0.561,0.841c0.426,0,0.578-0.375,0.545-1.4
		c-0.107-3.645,0.064-4.998,0.047-5.603c-0.01-0.327-0.279-0.466-0.766-0.56c-1.4-0.327-3.66-0.795-7.137-0.795
		c-7.438,0-12.248,3.69-12.094,8.822c0.113,3.782,2.244,7.049,8.248,11.069l2.512,1.678c4.531,2.988,5.398,5.18,5.469,7.469
		c0.074,2.475-2.195,5.324-7.01,5.324c-3.318,0-6.512-1.264-7.791-4.717c-0.293-0.793-0.535-1.775-0.553-2.383
		c-0.012-0.371-0.078-0.791-0.559-0.791c-0.428,0-0.523,0.516-0.607,1.211c-0.053,0.449-0.215,1.539-0.27,1.846
		c-0.326,1.9-0.883,2.875-2.088,3.434c-1.209,0.561-3.16,0.561-4.365,0.561c-4.736,0-8.174-0.699-8.266-3.9
		c-0.047-1.35,0-5.619,0-7.201v-3.666c0-0.281,0.047-0.463,0.277-0.463c1.113,0,7.725,0.045,8.605,0.137
		c1.719,0.186,2.369,0.883,2.602,1.811c0.137,0.604,0.137,1.209,0.184,1.672c0,0.232,0.094,0.42,0.422,0.42
		c0.412,0,0.412-0.514,0.412-0.883c0-0.324,0.094-2.182,0.188-3.111c0.141-2.369,0.373-3.111,0.373-3.389
		c0-0.281-0.141-0.373-0.326-0.373c-0.234,0-0.418,0.23-0.74,0.604c-0.418,0.465-1.119,0.602-2.229,0.695
		c-1.072,0.094-8.424,0.094-9.443,0.094c-0.277,0-0.324-0.188-0.324-0.512V11.149c0-0.326,0.092-0.465,0.322-0.465
		c0.928,0,7.818,0.093,8.607,0.187c2.322,0.278,2.785,0.836,3.113,1.671c0.229,0.557,0.275,1.347,0.275,1.673
		c0,0.417,0.094,0.647,0.418,0.647c0.326,0,0.42-0.275,0.467-0.511c0.09-0.557,0.184-2.6,0.23-3.065
		c0.139-2.136,0.369-2.692,0.369-3.017c0-0.232-0.043-0.42-0.275-0.42c-0.234,0-0.512,0.142-0.744,0.188
		c-0.371,0.094-1.115,0.187-1.996,0.275c-0.883,0.051-12.135,0.051-13.621,0.051c-0.65,0-1.717-0.051-2.926-0.094
		c-0.955,0-2.035-0.03-3.086-0.04c-0.045-0.235-0.139-0.337-0.334-0.337c-0.361,0-1.471,0.458-4.42,0.458H56.541
		c-1.521,0-3.268-0.091-4.6-0.23c-1.15-0.089-1.592-0.38-1.965-0.38c-0.254,0-0.41,0.094-0.539,0.598h-0.453
		c-0.615,0-1.229,0.021-1.807,0.048c-1,0.036-1.846,0.081-2.385,0.089c-0.934-0.016-2.783-0.137-4.775-0.137
		c-0.617,0-1.064,0.046-1.064,0.413c0,0.272,0.162,0.412,0.652,0.412c0.574,0,1.559,0,2.172,0.275
		c0.877,0.413,1.266,1.146,1.365,3.313l0.145,18.688c-0.693-0.736-20.949-23.274-21.545-23.73c-0.773-0.584-1.568-0.045-1.568,0.684
		l-0.395,12.093l-0.563,15.975c-0.043,3.99-0.828,4.777-1.895,5.418c-0.484,0.297-1.348,0.436-1.941,0.463
		c-0.18,0.008-2.084,0.092-2.896-0.1c-1.23-0.297-1.967-1.129-2.107-2.369c-0.186-1.982-0.186-5.613-0.186-10.084v-8.098
		c0-6.997,0-8.285,0.096-9.76c0.09-1.609,0.461-2.394,1.699-2.622c0.547-0.094,0.91-0.142,1.367-0.142
		c0.463,0,0.732-0.086,0.732-0.461c0-0.271-0.363-0.366-0.959-0.366c-1.742,0-4.447,0.137-5.588,0.137
		c-1.33,0-4.213-0.137-5.955-0.137c-0.733,0-1.104,0.096-1.104,0.366c0,0.375,0.276,0.461,0.738,0.461
		c0.542,0,1.143,0.048,1.65,0.185c1.004,0.23,1.467,1.013,1.553,2.579c0.094,1.476,0.094,2.764,0.094,9.76v8.098
		c0,4.471,0,8.102-0.226,10.035c-0.14,1.336-0.417,2.115-1.335,2.307c-0.407,0.088-0.961,0.18-1.646,0.18
		c-0.551,0-0.734,0.139-0.734,0.371c0,0.322,0.32,0.461,0.917,0.461c1.835,0,4.718-0.139,5.776-0.139c1.23,0,8.131,0.133,8.35,0.133
		c2.373,0,4.777-0.072,5.186-0.072c0.869,0,2.693,0.139,5.66,0.139c0.637,0,1.051-0.094,1.051-0.461
		c0-0.273-0.275-0.363-0.779-0.363c-0.727,0-1.596-0.049-2.371-0.322c-0.912-0.322-1.508-1.514-1.596-5.09l-0.17-9.033l-0.146-8.986
		C23.189,19.82,41.49,39.826,44.07,42.58c0.451,0.504,0.941,1.01,1.389,1.01c0.369,0,0.535-0.412,0.535-1.424l0.449-28.964
		c0.006-0.361,0.018-0.693,0.035-0.997c0.141-1.746,0.531-2.392,1.332-2.767c0.43-0.192,1.033-0.245,1.557-0.266
		c-0.031,1.329,0,4.015,0,4.592c0,0.511,0.094,0.736,0.416,0.736c0.271,0,0.412-0.185,0.504-0.552
		c0.092-0.372,0.322-0.927,0.781-1.62c0.688-1.015,1.797-1.248,4.469-1.344l4.604-0.185v18.961c0,4.256,0,7.908-0.227,9.85
		c-0.139,1.344-0.686,2.357-1.605,2.549c-0.418,0.088-1.895,0.182-2.584,0.182c-0.551,0-0.734,0.137-0.734,0.371
		c0,0.322,0.32,0.463,0.922,0.463c1.834,0,5.932-0.141,6.986-0.141c1.291,0,4.193,0.141,7.229,0.141
		c0.508,0,0.881-0.141,0.881-0.463c0-0.234-0.238-0.371-0.74-0.371c-0.689,0-1.707-0.094-2.35-0.182
		c-1.375-0.191-1.652-1.205-1.793-2.5c-0.232-1.99-0.232-5.643-0.232-9.898V10.8l4.529,0.142c4.098,0.094,5.494,1.387,5.586,2.589
		l0.045,0.509c0.051,0.696,0.141,0.924,0.51,0.924c0.277,0,0.365-0.276,0.412-0.739c0-1.118-0.012-3.966-0.012-5.135
		c0.348,0.022,0.67,0.058,0.867,0.108c1.531,0.327,1.904,1.068,1.998,2.645c0.09,1.488,0.09,2.789,0.09,9.845v8.172
		c0,4.275,0,7.943-0.23,9.895c-0.186,1.344-0.418,2.369-1.348,2.551c-0.418,0.094-0.975,0.188-1.672,0.188
		c-0.557,0-0.744,0.137-0.744,0.371c0,0.322,0.326,0.463,0.932,0.463c0.928,0,2.135-0.047,3.203-0.092
		c1.115,0,2.135-0.049,2.646-0.049c1.395,0,2.834,0.049,4.83,0.141c1.996,0.049,7.244,0.141,10.727,0.141
		c1.766,0,2.182,0,2.506-1.207c0.012-0.043,0.023-0.098,0.033-0.15c0.133,0.348,0.402,0.514,0.938,0.717
		c2.33,0.885,4.746,1.215,7.85,1.215c1.023,0,2.068-0.059,3.107-0.201c1.373,0.014,2.537,0,3.396-0.029c1.682-0.057,4.164,0,4.793,0
		c0.508,0,0.928,0.059,0.932-0.332c0.004-0.217-0.131-0.367-0.568-0.367h-0.689c-1.426,0-1.254-0.637-0.758-1.361l6.541-9.443
		c0.182-0.271,0.305-0.365,0.535-0.365l9.246-0.047c0.229,0,0.334,0.094,0.355,0.324l0.365,9.602
		c0.051,0.553-0.406,0.967-0.756,1.057c-0.477,0.047-0.789,0.09-0.773,0.498c0.016,0.387,0.41,0.445,1.252,0.428
		c1.666-0.037,2.949-0.08,4.834-0.051c1.668,0.023,3.383,0.162,4.281,0.162c1.699,0,2.291-0.229,2.412-0.598
		C148.197,42.996,147.908,42.816,147.539,42.816 M135.998,29.678l-7.492-0.037c-0.076,0-0.248-0.098-0.094-0.32
		c0.719-1.045,5.168-7.449,7.092-10.199c0.127-0.182,0.301-0.123,0.309,0.059c0.057,1.375,0.51,10.223,0.51,10.223
		C136.322,29.539,136.229,29.678,135.998,29.678z"/>
	<path fill="#DDB314" d="M207.91,14.935L207.91,14.935l-0.016-0.013c-0.301-0.18-0.758-0.283-1.063-0.148
		c-1.957-0.186-3.824-0.165-5.801-0.145h-0.059l-0.078,0.002c-0.99,0.013-2.014,0.023-3.037,0.008
		c-8.287-0.172-8.287-0.172-8.287-0.172c-1.941-0.051-4.07-0.035-6.158,0.043c-1.547,0.013-3.047,0.053-4.576,0.099
		c-1.594,0.041-5.396,0.054-7.668,0.059c-1.211,0.005-1.846,0.005-1.926,0.01c-0.27,0.018-0.594,0.39-0.602,0.693
		c-0.006,0.167,0.096,0.359,0.385,0.388c0.215,0.025,1.588,0.03,4.084,0.022l2.549-0.013c0.68-0.005,0.996,0.01,1.145-0.008h0.016
		c1.873-0.187,3.758-0.177,5.578-0.164h0.141c1.18,0.005,2.398,0.013,3.625-0.035c0.254,0.058,0.523,0.005,0.781-0.049l0.041-0.007
		c0.113-0.023,0.234-0.046,0.35-0.054c0.279,0.076,0.6,0.073,0.936,0.066c0.324-0.006,0.656-0.013,0.957,0.061l0.002,0.008
		l0.053-0.003v-0.008c0.264-0.091,0.508-0.043,0.762,0.008c0.008,0.003,0.047,0.008,0.047,0.008
		c0.121,0.025,0.234,0.045,0.346,0.048c2.369-0.063,4.99,0.021,8.256,0.273c-0.004,0,1.547,0.164,1.547,0.164v-0.002v0.002h0.018
		c1.375-0.134,2.795-0.03,4.168,0.068c0.004,0.003,0.033,0.003,0.033,0.003c1.033,0.078,2.008,0.149,2.979,0.126l0.002,0.013
		l0.059-0.02l-0.002-0.013l0.514-0.41l0.002,0.002l0.023-0.024l-0.002-0.006C208.201,15.542,208.146,15.159,207.91,14.935"/>
	<path fill="#0F6735" d="M194.199,32.541l0.043-0.025v-0.102l-0.037-3.227v-0.01l-0.004-0.008c-0.057-0.486-0.066-1.023-0.08-1.592
		c-0.014-0.639-0.027-1.299-0.113-1.885c-0.016-0.834-0.182-1.732-0.342-2.602l-0.109-0.586l-0.01-0.057l-0.039-0.039
		c-0.129-0.133-0.174-0.295-0.223-0.482c-0.043-0.158-0.086-0.32-0.188-0.475c-0.215-0.398-0.557-0.777-0.859-1.117l-0.018-0.018
		c-0.074-0.102-0.162-0.156-0.24-0.205c-0.047-0.029-0.088-0.059-0.135-0.098l-0.07-0.061l-0.041,0.01l-0.055-0.043
		c-0.273-0.219-0.529-0.305-0.824-0.4l-0.004-0.002c-0.086-0.121-0.25-0.141-0.359-0.143v-0.08l-0.154-0.021l-0.715-0.107
		l-0.107-0.016l-0.066,0.086c-0.027,0.033-0.031,0.043-0.182-0.016c-0.07-0.023-0.145-0.051-0.229-0.059l-0.084-0.008l-0.043,0.041
		c-0.02-0.016-0.049-0.033-0.08-0.051l-0.301-0.088l-0.02,0.139c-0.137-0.002-0.25,0.023-0.344,0.074h-0.475l-0.438,0.004
		l0.049,0.17l-0.008,0.008c-0.193-0.053-0.338,0.066-0.422,0.135c-0.016,0.012-0.031,0.025-0.041,0.033
		c-0.154,0.023-0.244,0.09-0.305,0.139c-0.047,0.035-0.063,0.047-0.105,0.051l-0.074,0.004l-0.049,0.061
		c-0.066,0.076-0.271,0.17-0.385,0.221l-0.24,0.107l0.051,0.053c-0.039,0.016-0.076,0.041-0.113,0.072h-0.232v0.186
		c-0.012-0.002-0.02-0.002-0.027-0.006l-0.131-0.055c-0.012-0.002-0.094,0.113-0.094,0.113c-0.143,0.197-0.33,0.395-0.523,0.6
		c-0.229,0.246-0.467,0.496-0.646,0.77l-0.057,0.078l0.037,0.084c-0.045,0.025-0.152,0.096-0.174,0.229
		c-0.088,0.096-0.109,0.225-0.125,0.311c-0.002,0.025-0.008,0.064-0.016,0.082c-0.096,0.113-0.115,0.23-0.131,0.318
		c-0.014,0.068-0.02,0.105-0.047,0.141l-0.117,0.145l0.053,0.041c-0.035,0.088-0.035,0.178-0.035,0.232
		c0,0.025-0.002,0.053-0.004,0.076l-0.076,0.045l0.02,0.115c0.029,0.227,0.002,0.439-0.029,0.66
		c-0.029,0.215-0.057,0.434-0.033,0.678c-0.09,0.135-0.068,0.291-0.053,0.393c0.006,0.033,0.014,0.082,0.01,0.102l-0.115,0.092
		l0.082,0.137c0.063,0.104,0.012,0.27-0.033,0.43c-0.047,0.152-0.098,0.336-0.045,0.5c-0.012,0.012-0.027,0.025-0.039,0.043
		c-0.02,0.025-0.039,0.076-0.033,0.133c0,0.127-0.014,0.164-0.018,0.174l-0.084,0.176l-0.012,0.068l0.152,0.107
		c-0.018,0.104-0.006,0.201,0.008,0.287c0.02,0.115,0.021,0.166-0.014,0.213l-0.096,0.174l0.096,0.113c0,0.012,0,0.021,0,0.031
		c-0.004,0.078-0.012,0.221,0.086,0.324c0.004,0.02,0.006,0.037,0.012,0.055l-0.174,0.047l0.111,0.244
		c0,0.016-0.006,0.039-0.01,0.059c-0.02,0.07-0.051,0.215,0.021,0.34c-0.055,0.141-0.02,0.277,0.004,0.371
		c0.004,0.025,0.014,0.064,0.018,0.086c-0.166,0.176-0.086,0.406-0.039,0.529c-0.078,0.117-0.061,0.256-0.043,0.342l-0.223,0.078
		l0.227,0.232c-0.01,0.049-0.01,0.111,0.025,0.178c0.027,0.039,0.061,0.064,0.096,0.078l-0.068,0.025
		c0.002,0.008,0.004,0.016,0.008,0.023l0,0l0.078,0.207l-0.002,0.023c-0.018,0.121,0.01,0.24,0.068,0.334
		c-0.02,0.025-0.031,0.061-0.037,0.102l-0.088,0.088l0.088,0.125c0.068,0.096,0.043,0.225-0.008,0.424
		c-0.043,0.172-0.1,0.398,0.004,0.588l-0.127,0.121l0.156,0.119c-0.002,0.008-0.008,0.016-0.01,0.023
		c-0.041,0.072-0.113,0.215-0.023,0.363l-0.006-0.018c0.031,0.074,0.018,0.193,0.002,0.316c-0.021,0.182-0.049,0.402,0.049,0.621
		l-0.031,0.219l0.008-0.029c-0.025,0.086-0.008,0.158,0.021,0.209l-0.07,0.033l0.049,0.154c0.049,0.158,0.051,0.35,0.051,0.557
		c0.004,0.391,0.004,0.83,0.354,1.168l0.078,0.07l0.098-0.031c0.266-0.074,0.275-0.338,0.283-0.475
		c0.002-0.033,0.002-0.061,0.008-0.084l0.002-0.037l-0.01-0.035c-0.107-0.357-0.061-0.826-0.021-1.238
		c0.012-0.111,0.021-0.213,0.029-0.314l0.002-0.047l-0.02-0.049c-0.072-0.143-0.055-0.283-0.035-0.447
		c0.02-0.148,0.035-0.316-0.018-0.486c0.059-0.758,0.027-1.65-0.008-2.439c-0.01-0.332-0.027-0.648-0.031-0.941v-0.008v-0.01
		c-0.045-0.371-0.033-0.77-0.021-1.16c0.008-0.348,0.02-0.703-0.012-1.033c0.082-0.377,0.078-0.721,0.07-1.086
		c-0.004-0.166-0.006-0.334,0-0.514l0.002-0.045l-0.014-0.025c0.084-0.094,0.102-0.195,0.061-0.293
		c0.037-0.143,0.045-0.273,0.047-0.391c0.002-0.096,0.008-0.188,0.025-0.268l0.01-0.043l-0.012-0.043
		c-0.021-0.082,0-0.172,0.021-0.271c0.027-0.119,0.059-0.256,0.01-0.395c0.137-0.283,0.17-0.631,0.195-0.967l0.012-0.117
		c0.012-0.072-0.014-0.143-0.074-0.201c0-0.008,0-0.014,0-0.014c0-0.148,0.08-0.268,0.178-0.42c0.104-0.166,0.223-0.357,0.256-0.611
		l0.002-0.043l-0.002-0.008c0.014-0.016,0.029-0.029,0.041-0.041c0.064-0.051,0.164-0.137,0.164-0.271
		c-0.002-0.025-0.006-0.047-0.014-0.07c0.125-0.113,0.203-0.24,0.273-0.354c0.102-0.176,0.174-0.297,0.375-0.355l0.096-0.027
		l0.025-0.1c0.029-0.111,0.127-0.172,0.281-0.27c0.115-0.072,0.244-0.154,0.34-0.277c0.129,0.012,0.207-0.021,0.252-0.072
		c0.156-0.039,0.277-0.133,0.377-0.211c0.162-0.133,0.221-0.162,0.332-0.107l0.111,0.047l0.072-0.07c0.006,0,0.01-0.002,0.016-0.002
		c0.053-0.016,0.143-0.039,0.195-0.125c0.049-0.01,0.092-0.023,0.131-0.035c0.092-0.033,0.113-0.035,0.146-0.02
		c0.029,0.02,0.094,0.043,0.166,0.025l0.006,0.012l0.133-0.018l0.174-0.02c0.518-0.068,0.965-0.125,1.369,0.09l0.143,0.076
		l0.088-0.129c0.016,0.02,0.035,0.041,0.051,0.063c0.104,0.115,0.287,0.314,0.549,0.27c0.059,0.053,0.123,0.09,0.18,0.123
		c0.023,0.014,0.055,0.033,0.076,0.047v0.01l0.035,0.045c0.082,0.109,0.256,0.162,0.395,0.168c0.303,0.318,0.611,0.756,0.611,0.945
		v0.178h0.135c0,0.006,0,0.008,0,0.01c0.053,0.236,0.119,0.529,0.305,0.725c-0.053,0.119-0.01,0.264,0.012,0.324
		c0.006,0.02,0.014,0.045,0.018,0.068l-0.047,0.133l0.121,0.119l0.025,0.016c-0.008,0.121,0.049,0.236,0.088,0.316
		c0.01,0.023,0.023,0.045,0.031,0.07l-0.029,0.064c-0.16,0.309,0.057,0.48,0.158,0.561c0.018,0.016,0.029,0.023,0.039,0.031
		c-0.08,0.061-0.074,0.127-0.094,0.234l0.014,0.137l0.057,0.09c0,0,0.002,0.002,0.006,0.002c0,0.006,0.002,0.014,0.004,0.018
		c0.008,0.025,0.021,0.063,0.045,0.104l-0.063,0.061l-0.043,0.16l0.09,0.127l0.07,0.037c-0.002,0.07,0.025,0.137,0.047,0.18
		c0.002,0.008,0.008,0.021,0.01,0.027l-0.016,0.08c-0.059,0.293-0.135,0.676,0.049,0.98c-0.006,0.008-0.014,0.014-0.016,0.018
		c-0.084,0.115-0.064,0.244-0.049,0.338c0.004,0.029,0.014,0.08,0.012,0.096l-0.047,0.186c-0.004,0.008,0.059,0.025,0.111,0.035
		c-0.006,0.018-0.014,0.035-0.02,0.055l-0.037,0.213h0.07c-0.012,0.074-0.014,0.143-0.018,0.203c0,0.109-0.004,0.18-0.041,0.232
		l-0.018,0.025l-0.006,0.031c-0.055,0.191,0.018,0.373,0.076,0.523c0.01,0.027,0.02,0.053,0.031,0.078
		c-0.031,0.037-0.064,0.084-0.059,0.156c0,0.016,0.008,0.029,0.012,0.041l-0.039,0.041l0.035,0.102
		c0.02,0.063,0.055,0.098,0.098,0.123l-0.027,0.008c-0.008,0-0.008,0.139-0.008,0.139v0.049l-0.113,0.035l0.057,0.117
		c-0.029,0.053-0.057,0.131-0.029,0.219l-0.076,0.137c0.004-0.002,0.014,0.082,0.082,0.115c-0.07,0.244,0.105,0.424,0.213,0.531
		c0.047,0.043,0.072,0.078,0.094,0.104h-0.09l0.068,0.232v0.006c-0.014,0.012-0.031,0.033-0.043,0.051l-0.152,0.07l0.051,0.199
		l-0.016,0.051c-0.035,0.104-0.006,0.172,0.023,0.219c0.006,0.006,0.012,0.012,0.021,0.02c-0.057,0.051-0.113,0.129-0.127,0.248
		l-0.018,0.17l0.141,0.021c-0.014,0.037-0.023,0.072-0.031,0.105c-0.02,0.061-0.033,0.115-0.063,0.158v0.004
		c-0.002,0.004-0.008,0.014-0.01,0.021l0.24,0.135c-0.037,0.061-0.055,0.127-0.068,0.172c-0.01,0.027-0.018,0.059-0.027,0.074
		c-0.006,0-0.01,0-0.018,0l-0.199,0.002l0.01,0.232c0.01,0.035,0.016,0.076,0.021,0.125c0.004,0.043,0.01,0.09,0.021,0.143v0.234
		c0,0.029,0,0.078,0.012,0.129l-0.029,0.014l0.018,0.131c0.012,0.064,0.006,0.131,0,0.191c-0.002,0.037-0.004,0.082-0.004,0.121
		l-0.164,0.084l0.201,0.221l-0.004,0.01c-0.023,0.053-0.051,0.123-0.051,0.207h-0.143l0.242,0.297
		c0.021,0.021,0.039,0.09,0.053,0.137c0.002,0.004,0.002,0.012,0.006,0.018c-0.102,0.096-0.117,0.242-0.123,0.316
		c-0.006,0.035-0.01,0.084-0.018,0.098c0,0,0.002-0.002,0.002-0.004l0.063,0.084c-0.047,0.035-0.078,0.074-0.094,0.107
		c-0.025,0.057-0.025,0.117-0.02,0.17h-0.234l0.191,0.193l-0.178,0.061l0.15,0.123v0.479c0,0.088,0.041,0.162,0.111,0.197
		c0.006,0.002,0.01,0.002,0.01,0.002c0.1,0.066,0.203,0.064,0.287,0.043v0.201l0.234-0.07c0.168-0.051,0.297-0.059,0.43-0.031
		l0.191,0.037l0.025-0.191c0.092-0.717,0.074-1.412,0.057-2.084c-0.02-0.656-0.035-1.277,0.049-1.885
		C194.289,32.707,194.234,32.596,194.199,32.541"/>
	<path fill="#184B8D" d="M180.447,32.541l0.043-0.025v-0.102l-0.037-3.227v-0.01V29.17c-0.059-0.486-0.07-1.023-0.082-1.592
		c-0.014-0.639-0.029-1.299-0.117-1.885c-0.014-0.834-0.18-1.732-0.34-2.602l-0.109-0.586l-0.008-0.057l-0.041-0.039
		c-0.129-0.133-0.174-0.295-0.223-0.482c-0.041-0.158-0.084-0.32-0.184-0.475c-0.215-0.398-0.557-0.777-0.861-1.117l-0.014-0.018
		c-0.078-0.102-0.166-0.156-0.244-0.205c-0.047-0.029-0.09-0.059-0.135-0.098l-0.068-0.061l-0.041,0.01l-0.057-0.043
		c-0.271-0.219-0.529-0.305-0.822-0.4L177.1,19.52c-0.084-0.121-0.246-0.141-0.357-0.143v-0.08l-0.152-0.021l-0.719-0.107
		l-0.105-0.016l-0.068,0.086c-0.021,0.033-0.029,0.043-0.18-0.016c-0.07-0.023-0.146-0.051-0.229-0.059l-0.086-0.008l-0.039,0.041
		c-0.023-0.016-0.049-0.033-0.082-0.051l-0.299-0.088l-0.023,0.139c-0.133-0.002-0.246,0.023-0.342,0.074h-0.475l-0.438,0.004
		l0.049,0.17l-0.008,0.008c-0.191-0.053-0.34,0.066-0.42,0.135c-0.016,0.012-0.031,0.025-0.041,0.033
		c-0.156,0.023-0.246,0.09-0.309,0.139c-0.047,0.035-0.063,0.047-0.104,0.051l-0.076,0.004l-0.047,0.061
		c-0.066,0.076-0.273,0.17-0.383,0.221l-0.244,0.107l0.055,0.053c-0.037,0.016-0.08,0.041-0.117,0.072h-0.232v0.186
		c-0.01-0.002-0.02-0.002-0.025-0.006l-0.131-0.055c-0.012-0.002-0.096,0.113-0.096,0.113c-0.141,0.197-0.326,0.395-0.521,0.6
		c-0.23,0.246-0.465,0.496-0.646,0.77l-0.059,0.078l0.037,0.084c-0.043,0.025-0.152,0.096-0.17,0.229
		c-0.092,0.096-0.111,0.225-0.125,0.311c-0.002,0.025-0.01,0.064-0.016,0.082c-0.096,0.113-0.119,0.23-0.135,0.318
		c-0.01,0.068-0.018,0.105-0.047,0.141l-0.113,0.145l0.051,0.041c-0.033,0.088-0.035,0.178-0.035,0.232c0,0.025,0,0.053-0.004,0.076
		l-0.076,0.045l0.018,0.115c0.031,0.227,0.002,0.439-0.027,0.66c-0.029,0.215-0.059,0.434-0.033,0.678
		c-0.09,0.135-0.068,0.291-0.053,0.393c0.004,0.033,0.012,0.082,0.01,0.102l-0.117,0.092l0.084,0.137
		c0.063,0.104,0.012,0.27-0.037,0.43c-0.041,0.152-0.096,0.336-0.039,0.5c-0.016,0.012-0.027,0.025-0.041,0.043
		c-0.021,0.025-0.035,0.076-0.033,0.133c0,0.127-0.014,0.164-0.018,0.174l-0.084,0.176l-0.016,0.068l0.154,0.107
		c-0.016,0.104-0.004,0.201,0.01,0.287c0.02,0.115,0.021,0.166-0.012,0.213l-0.098,0.174l0.096,0.113c0,0.012,0,0.021,0,0.031
		c-0.006,0.078-0.012,0.221,0.086,0.324c0.002,0.02,0.004,0.037,0.012,0.055l-0.176,0.047l0.113,0.244
		c-0.002,0.016-0.006,0.039-0.01,0.059c-0.018,0.07-0.051,0.215,0.021,0.34c-0.055,0.141-0.021,0.277,0.002,0.371
		c0.006,0.025,0.016,0.064,0.02,0.086c-0.166,0.176-0.084,0.406-0.039,0.529c-0.08,0.117-0.061,0.256-0.045,0.342l-0.223,0.078
		l0.227,0.232c-0.01,0.049-0.01,0.111,0.027,0.178c0.025,0.039,0.061,0.064,0.096,0.078l-0.07,0.025
		c0.002,0.008,0.008,0.016,0.01,0.023h-0.002l0.084,0.207l-0.006,0.023c-0.02,0.121,0.01,0.24,0.07,0.334
		c-0.021,0.025-0.035,0.061-0.039,0.102l-0.088,0.088l0.088,0.125c0.068,0.096,0.041,0.225-0.008,0.424
		c-0.045,0.172-0.1,0.398,0.002,0.588l-0.123,0.121l0.154,0.119c-0.002,0.008-0.008,0.016-0.01,0.023
		c-0.041,0.072-0.113,0.215-0.021,0.363l-0.01-0.018c0.033,0.074,0.018,0.193,0.002,0.316c-0.02,0.182-0.047,0.402,0.049,0.621
		l-0.031,0.219l0.01-0.029c-0.027,0.086-0.006,0.158,0.021,0.209l-0.07,0.033l0.049,0.154c0.047,0.158,0.051,0.35,0.055,0.557
		c0,0.391,0,0.83,0.352,1.168l0.074,0.07l0.102-0.031c0.262-0.074,0.273-0.338,0.283-0.475c0-0.033,0.002-0.061,0.006-0.084
		l0.004-0.037l-0.01-0.035c-0.105-0.357-0.063-0.826-0.021-1.238c0.008-0.111,0.02-0.213,0.027-0.314l0.002-0.047l-0.021-0.049
		c-0.072-0.143-0.055-0.283-0.033-0.447c0.018-0.148,0.035-0.316-0.02-0.486c0.064-0.758,0.027-1.65-0.004-2.439
		c-0.014-0.332-0.025-0.648-0.031-0.941v-0.008l-0.002-0.01c-0.045-0.371-0.035-0.77-0.021-1.16c0.01-0.348,0.021-0.703-0.014-1.033
		c0.084-0.377,0.078-0.721,0.072-1.086c-0.002-0.166-0.004-0.334,0-0.514v-0.045l-0.01-0.025c0.082-0.094,0.1-0.195,0.057-0.293
		c0.039-0.143,0.045-0.273,0.047-0.391c0.006-0.096,0.008-0.188,0.029-0.268l0.008-0.043l-0.01-0.043
		c-0.025-0.082-0.002-0.172,0.02-0.271c0.025-0.119,0.057-0.256,0.008-0.395c0.141-0.283,0.172-0.631,0.199-0.967l0.012-0.117
		c0.01-0.072-0.014-0.143-0.072-0.201c0-0.008,0-0.014,0-0.014c0-0.148,0.076-0.268,0.172-0.42c0.107-0.166,0.227-0.357,0.258-0.611
		l0.006-0.043l-0.004-0.008c0.014-0.016,0.025-0.029,0.041-0.041c0.066-0.051,0.164-0.137,0.16-0.271c0-0.025-0.004-0.047-0.01-0.07
		c0.125-0.113,0.199-0.24,0.27-0.354c0.102-0.176,0.174-0.297,0.377-0.355l0.096-0.027l0.025-0.1
		c0.031-0.111,0.127-0.172,0.281-0.27c0.115-0.072,0.242-0.154,0.338-0.277c0.129,0.012,0.207-0.021,0.254-0.072
		c0.158-0.039,0.277-0.133,0.377-0.211c0.166-0.133,0.221-0.162,0.332-0.107l0.111,0.047l0.072-0.07
		c0.004,0,0.012-0.002,0.012-0.002c0.055-0.016,0.143-0.039,0.197-0.125c0.049-0.01,0.096-0.023,0.131-0.035
		c0.092-0.033,0.115-0.035,0.146-0.02c0.033,0.02,0.094,0.043,0.168,0.025l0.006,0.012l0.133-0.018l0.174-0.02
		c0.518-0.068,0.963-0.125,1.367,0.09l0.145,0.076l0.088-0.129c0.018,0.02,0.037,0.041,0.053,0.063
		c0.105,0.115,0.285,0.314,0.547,0.27c0.057,0.053,0.121,0.09,0.18,0.123c0.023,0.014,0.053,0.033,0.078,0.047v0.01l0.033,0.045
		c0.082,0.109,0.256,0.162,0.393,0.168c0.307,0.318,0.613,0.756,0.613,0.945v0.178h0.133c0,0.006,0,0.008,0,0.01
		c0.053,0.236,0.121,0.529,0.305,0.725c-0.053,0.119-0.008,0.264,0.012,0.324c0.006,0.02,0.014,0.045,0.018,0.068l-0.043,0.133
		l0.117,0.119l0.027,0.016c-0.008,0.121,0.047,0.236,0.09,0.316c0.01,0.023,0.02,0.045,0.031,0.07l-0.029,0.064
		c-0.164,0.309,0.055,0.48,0.158,0.561c0.016,0.016,0.025,0.023,0.039,0.031c-0.08,0.061-0.078,0.127-0.096,0.234l0.016,0.137
		l0.053,0.09c0.006,0.002,0.004,0.002,0.006,0.002c0.002,0.006,0.002,0.014,0.006,0.018c0.01,0.025,0.021,0.063,0.043,0.104
		l-0.061,0.061l-0.043,0.16l0.088,0.127l0.072,0.037c-0.004,0.07,0.027,0.137,0.047,0.18c0.004,0.008,0.006,0.021,0.012,0.027
		l-0.018,0.08c-0.061,0.293-0.133,0.676,0.049,0.98c-0.006,0.008-0.01,0.014-0.016,0.018c-0.084,0.115-0.063,0.244-0.047,0.338
		c0.002,0.029,0.014,0.08,0.008,0.096l-0.047,0.186c-0.002,0.008,0.063,0.025,0.111,0.035c-0.006,0.018-0.014,0.035-0.016,0.055
		l-0.041,0.213h0.072c-0.01,0.074-0.014,0.143-0.016,0.203c-0.002,0.109-0.006,0.18-0.045,0.232l-0.014,0.025l-0.008,0.031
		c-0.053,0.191,0.018,0.373,0.076,0.523c0.01,0.027,0.021,0.053,0.029,0.078c-0.029,0.037-0.059,0.084-0.055,0.156
		c0,0.016,0.006,0.029,0.01,0.041l-0.041,0.041l0.037,0.102c0.02,0.063,0.055,0.098,0.098,0.123l-0.029,0.008
		c-0.006,0-0.006,0.139-0.006,0.139v0.049l-0.111,0.035l0.053,0.117c-0.025,0.053-0.057,0.131-0.025,0.219l-0.078,0.137
		c0.004-0.002,0.016,0.082,0.084,0.115c-0.074,0.244,0.104,0.424,0.213,0.531c0.043,0.043,0.072,0.078,0.092,0.104h-0.09
		l0.066,0.232l0.004,0.006c-0.016,0.012-0.031,0.033-0.047,0.051l-0.148,0.07l0.049,0.199l-0.014,0.051
		c-0.037,0.104-0.008,0.172,0.021,0.219c0.006,0.006,0.014,0.012,0.021,0.02c-0.055,0.051-0.113,0.129-0.127,0.248l-0.016,0.17
		l0.139,0.021c-0.016,0.037-0.025,0.072-0.033,0.105c-0.018,0.061-0.031,0.115-0.061,0.158l0.002,0.004
		c-0.006,0.004-0.01,0.014-0.014,0.021l0.242,0.135c-0.033,0.061-0.055,0.127-0.068,0.172c-0.008,0.027-0.018,0.059-0.025,0.074
		c-0.006,0-0.012,0-0.018,0l-0.203,0.002l0.012,0.232c0.012,0.035,0.018,0.076,0.021,0.125c0.004,0.043,0.008,0.09,0.021,0.143
		v0.234c0,0.029,0,0.078,0.012,0.129l-0.029,0.014l0.02,0.131c0.01,0.064,0.006,0.131,0,0.191c-0.002,0.037-0.008,0.082-0.006,0.121
		l-0.162,0.084l0.199,0.221c-0.002,0.002-0.004,0.008-0.004,0.008c-0.025,0.055-0.051,0.125-0.051,0.209h-0.145l0.244,0.297
		c0.02,0.021,0.039,0.09,0.051,0.137c0.004,0.004,0.006,0.012,0.006,0.018c-0.098,0.096-0.113,0.242-0.121,0.316
		c-0.006,0.035-0.01,0.084-0.02,0.098c0,0,0.002-0.002,0.006-0.004l0.063,0.084c-0.049,0.035-0.078,0.074-0.094,0.107
		c-0.025,0.057-0.029,0.117-0.021,0.17h-0.234l0.193,0.193l-0.182,0.061l0.15,0.123v0.479c0,0.088,0.043,0.162,0.115,0.197
		c0.004,0.002,0.006,0.002,0.006,0.002c0.1,0.066,0.205,0.064,0.291,0.043v0.201l0.23-0.07c0.17-0.051,0.299-0.059,0.434-0.031
		l0.189,0.037l0.025-0.191c0.092-0.717,0.072-1.412,0.055-2.084c-0.018-0.656-0.035-1.277,0.053-1.885
		C180.537,32.707,180.484,32.596,180.447,32.541"/>
	<path fill="#F17321" d="M207.713,32.783l0.043-0.025l-0.002-0.102l-0.037-3.227v-0.008v-0.01c-0.059-0.486-0.07-1.021-0.082-1.59
		c-0.016-0.641-0.029-1.301-0.113-1.883c-0.018-0.838-0.184-1.732-0.344-2.6l-0.109-0.592l-0.01-0.053l-0.039-0.043
		c-0.129-0.129-0.174-0.291-0.223-0.48c-0.041-0.16-0.084-0.322-0.184-0.477c-0.215-0.395-0.561-0.777-0.863-1.115l-0.016-0.018
		c-0.074-0.102-0.162-0.158-0.24-0.205c-0.045-0.031-0.09-0.059-0.133-0.1l-0.07-0.059l-0.043,0.01l-0.055-0.045
		c-0.273-0.217-0.525-0.301-0.822-0.4l-0.008-0.002c-0.084-0.121-0.246-0.139-0.357-0.145v-0.078l-0.154-0.023l-0.717-0.105
		l-0.105-0.018l-0.064,0.088c-0.025,0.033-0.033,0.041-0.188-0.012c-0.066-0.023-0.143-0.053-0.225-0.061l-0.084-0.008l-0.041,0.041
		c-0.023-0.02-0.049-0.033-0.082-0.049l-0.299-0.092l-0.023,0.137c-0.133,0-0.246,0.027-0.342,0.076h-0.475l-0.438,0.002l0.053,0.17
		c-0.008,0.004-0.008,0.006-0.012,0.01c-0.191-0.053-0.342,0.066-0.422,0.135c-0.014,0.014-0.031,0.025-0.039,0.033
		c-0.158,0.027-0.244,0.092-0.309,0.141c-0.047,0.033-0.061,0.047-0.104,0.049l-0.074,0.006l-0.051,0.061
		c-0.061,0.08-0.27,0.166-0.383,0.221l-0.242,0.105l0.055,0.051c-0.037,0.018-0.08,0.043-0.117,0.076h-0.232v0.188
		c-0.008,0-0.021-0.004-0.025-0.006l-0.133-0.055c-0.01-0.006-0.094,0.111-0.094,0.111c-0.141,0.197-0.326,0.395-0.523,0.602
		c-0.229,0.242-0.463,0.494-0.645,0.768l-0.059,0.082l0.037,0.08c-0.041,0.027-0.152,0.096-0.174,0.227
		c-0.088,0.096-0.107,0.229-0.121,0.313c-0.004,0.027-0.012,0.064-0.016,0.078c-0.096,0.119-0.119,0.234-0.135,0.32
		c-0.01,0.068-0.018,0.107-0.047,0.143l-0.113,0.146l0.051,0.037c-0.035,0.088-0.035,0.18-0.035,0.234
		c0,0.021-0.004,0.057-0.006,0.076l-0.074,0.045l0.018,0.115c0.031,0.229,0.002,0.436-0.027,0.662
		c-0.029,0.215-0.057,0.432-0.035,0.676c-0.088,0.133-0.064,0.293-0.051,0.393c0.004,0.035,0.012,0.08,0.01,0.1l-0.117,0.092
		l0.084,0.137c0.063,0.104,0.012,0.271-0.035,0.43c-0.043,0.152-0.098,0.342-0.043,0.502c-0.014,0.012-0.027,0.025-0.039,0.045
		c-0.021,0.027-0.035,0.074-0.033,0.135c0,0.121-0.014,0.158-0.02,0.17l-0.082,0.174l-0.016,0.07l0.154,0.107
		c-0.018,0.105-0.004,0.201,0.01,0.285c0.018,0.117,0.023,0.168-0.012,0.213l-0.098,0.178l0.096,0.111c0,0.01,0,0.02,0,0.029
		c-0.006,0.078-0.014,0.221,0.086,0.324c0.002,0.021,0.008,0.039,0.01,0.057l-0.174,0.047l0.115,0.244
		c-0.004,0.018-0.008,0.039-0.014,0.061c-0.02,0.07-0.049,0.213,0.023,0.338c-0.055,0.141-0.021,0.281,0.004,0.373
		c0.006,0.025,0.014,0.061,0.018,0.084c-0.166,0.174-0.086,0.404-0.039,0.525c-0.08,0.119-0.061,0.262-0.045,0.344l-0.223,0.076
		l0.229,0.236c-0.012,0.053-0.012,0.111,0.025,0.178c0.027,0.039,0.063,0.063,0.096,0.08l-0.07,0.02
		c0.002,0.012,0.006,0.016,0.01,0.023h-0.002l0.08,0.211l-0.002,0.02c-0.02,0.123,0.01,0.246,0.07,0.336
		c-0.021,0.029-0.035,0.061-0.037,0.102l-0.09,0.088l0.088,0.125c0.068,0.1,0.041,0.225-0.01,0.426
		c-0.043,0.174-0.098,0.396,0.004,0.59l-0.123,0.123l0.158,0.113c-0.006,0.008-0.012,0.016-0.014,0.023
		c-0.041,0.076-0.115,0.215-0.023,0.365l-0.008-0.018c0.033,0.072,0.018,0.189,0.002,0.316c-0.02,0.182-0.047,0.402,0.051,0.619
		l-0.029,0.217l0.004-0.023c-0.025,0.082-0.004,0.154,0.021,0.209l-0.068,0.033l0.047,0.148c0.053,0.16,0.053,0.357,0.053,0.561
		c0.004,0.389,0.004,0.83,0.354,1.164l0.076,0.076l0.102-0.031c0.262-0.078,0.273-0.338,0.283-0.48c0-0.027,0.002-0.057,0.006-0.082
		l0.002-0.037l-0.008-0.037c-0.105-0.357-0.063-0.824-0.023-1.236c0.01-0.111,0.02-0.213,0.029-0.313l0.002-0.051l-0.021-0.043
		c-0.072-0.145-0.055-0.287-0.033-0.451c0.018-0.146,0.035-0.316-0.02-0.486c0.063-0.754,0.027-1.646-0.004-2.439
		c-0.014-0.334-0.025-0.65-0.031-0.936l-0.002-0.012v-0.012c-0.045-0.369-0.031-0.771-0.021-1.156c0.01-0.35,0.021-0.707-0.01-1.035
		c0.08-0.375,0.078-0.723,0.068-1.086c-0.002-0.164-0.008-0.338,0-0.514v-0.047l-0.01-0.021c0.082-0.096,0.102-0.197,0.057-0.299
		c0.039-0.139,0.045-0.271,0.051-0.391c0.002-0.094,0.004-0.18,0.023-0.262l0.01-0.047l-0.012-0.043
		c-0.021-0.08,0-0.172,0.021-0.266c0.025-0.121,0.057-0.26,0.008-0.4c0.141-0.283,0.172-0.629,0.199-0.967l0.012-0.113
		c0.01-0.076-0.014-0.145-0.072-0.205v-0.012c0-0.15,0.074-0.27,0.172-0.42c0.107-0.168,0.227-0.354,0.258-0.615l0.006-0.041
		l-0.004-0.008c0.012-0.012,0.025-0.025,0.041-0.037c0.063-0.057,0.164-0.141,0.16-0.273c0-0.023-0.004-0.051-0.012-0.072
		c0.123-0.113,0.203-0.24,0.271-0.355c0.102-0.17,0.174-0.295,0.377-0.35l0.098-0.031l0.025-0.096
		c0.029-0.111,0.125-0.174,0.281-0.271c0.113-0.072,0.24-0.154,0.336-0.277c0.129,0.012,0.211-0.025,0.254-0.074
		c0.156-0.037,0.277-0.129,0.377-0.209c0.166-0.133,0.221-0.162,0.332-0.109l0.113,0.051l0.07-0.07
		c0.008-0.004,0.012-0.004,0.018-0.004c0.049-0.012,0.141-0.043,0.191-0.125c0.049-0.012,0.094-0.023,0.133-0.037
		c0.09-0.031,0.111-0.035,0.145-0.018c0.035,0.018,0.094,0.041,0.168,0.023l0.006,0.012l0.133-0.018l0.174-0.02
		c0.518-0.068,0.963-0.123,1.367,0.092l0.143,0.08l0.09-0.131c0.018,0.02,0.035,0.043,0.053,0.059
		c0.102,0.115,0.285,0.316,0.547,0.27c0.057,0.051,0.123,0.092,0.18,0.127c0.023,0.012,0.055,0.031,0.074,0.043v0.008l0.037,0.049
		c0.082,0.107,0.256,0.16,0.393,0.166c0.305,0.318,0.613,0.754,0.613,0.947v0.176h0.133l0.004,0.014
		c0.049,0.238,0.115,0.529,0.301,0.719c-0.053,0.121-0.008,0.268,0.012,0.328c0.008,0.018,0.014,0.047,0.02,0.066l-0.045,0.135
		l0.119,0.119l0.023,0.014c-0.006,0.123,0.053,0.242,0.092,0.32c0.008,0.02,0.02,0.045,0.027,0.068l-0.025,0.064
		c-0.16,0.307,0.055,0.479,0.158,0.561c0.016,0.012,0.027,0.021,0.039,0.033c-0.08,0.063-0.078,0.123-0.094,0.234l0.014,0.135
		l0.053,0.088l0.006,0.002c0.002,0.006,0.006,0.012,0.006,0.018c0.01,0.029,0.021,0.064,0.043,0.105l-0.061,0.061l-0.043,0.158
		l0.092,0.133l0.066,0.033c-0.002,0.072,0.029,0.137,0.047,0.182c0.006,0.008,0.008,0.018,0.01,0.025l-0.014,0.08
		c-0.061,0.295-0.137,0.676,0.049,0.984c-0.006,0.004-0.01,0.008-0.01,0.008c-0.09,0.119-0.068,0.248-0.053,0.342
		c0.002,0.031,0.014,0.084,0.008,0.1l-0.045,0.182c-0.002,0.01,0.057,0.025,0.111,0.035c-0.008,0.018-0.014,0.035-0.02,0.057
		l-0.039,0.213h0.074c-0.016,0.072-0.016,0.141-0.018,0.201c-0.002,0.109-0.006,0.18-0.045,0.236l-0.014,0.025l-0.008,0.027
		c-0.053,0.195,0.018,0.375,0.074,0.523c0.012,0.027,0.023,0.057,0.031,0.082c-0.031,0.035-0.059,0.08-0.057,0.15
		c0,0.018,0.008,0.031,0.012,0.047l-0.039,0.037l0.035,0.107c0.018,0.057,0.055,0.096,0.102,0.117l-0.033,0.006
		c-0.006,0.002-0.006,0.143-0.006,0.143v0.051l-0.111,0.029l0.057,0.119c-0.029,0.057-0.061,0.131-0.029,0.221l-0.078,0.137
		c0,0,0.014,0.082,0.084,0.115c-0.074,0.246,0.105,0.424,0.209,0.529c0.045,0.049,0.076,0.078,0.096,0.107h-0.09l0.068,0.229
		l0.002,0.006c-0.016,0.018-0.031,0.033-0.047,0.053l-0.148,0.072l0.047,0.197l-0.016,0.051c-0.031,0.104-0.004,0.176,0.023,0.217
		c0.008,0.01,0.016,0.012,0.021,0.02c-0.053,0.055-0.111,0.129-0.123,0.248l-0.018,0.17l0.139,0.023
		c-0.012,0.035-0.025,0.07-0.033,0.102c-0.018,0.068-0.031,0.121-0.061,0.164h0.002c-0.002,0.008-0.01,0.016-0.012,0.023l0.24,0.133
		c-0.033,0.064-0.055,0.125-0.068,0.176c-0.01,0.021-0.021,0.055-0.029,0.07c0,0-0.008,0-0.014,0l-0.203,0.002l0.01,0.236
		c0.012,0.035,0.018,0.072,0.021,0.123c0.006,0.043,0.01,0.092,0.023,0.143v0.232c0,0.031,0.002,0.078,0.012,0.129l-0.027,0.016
		l0.018,0.131c0.012,0.064,0.006,0.129,0,0.193c-0.004,0.035-0.004,0.076-0.004,0.121l-0.166,0.08l0.201,0.221
		c-0.002,0.002-0.004,0.01-0.004,0.014c-0.021,0.053-0.051,0.125-0.051,0.205h-0.145l0.244,0.295
		c0.02,0.023,0.039,0.092,0.053,0.137c0.002,0.01,0.004,0.016,0.004,0.021c-0.098,0.096-0.113,0.236-0.121,0.316
		c-0.006,0.031-0.01,0.08-0.016,0.096v-0.004l0.061,0.082c-0.045,0.035-0.074,0.076-0.092,0.109
		c-0.027,0.057-0.027,0.113-0.02,0.168h-0.234l0.195,0.195l-0.184,0.059l0.15,0.125v0.482c0,0.086,0.045,0.156,0.111,0.195
		c0,0,0.012,0.004,0.016,0.004c0.094,0.064,0.199,0.059,0.287,0.041v0.197l0.229-0.068c0.17-0.051,0.299-0.061,0.432-0.033
		l0.191,0.039l0.025-0.193c0.092-0.713,0.072-1.412,0.055-2.082c-0.018-0.656-0.033-1.275,0.049-1.883
		C207.803,32.953,207.748,32.844,207.713,32.783"/>
	<path fill="#F17321" d="M163.631,0.955 M213.145,0.955h-49.514v49.514h49.514V0.955z M163.631,0.955 M210.523,47.857H166.24V3.572
		h44.283V47.857z M210.523,47.857"/>
</g>
</svg>
