<?xml version="1.0" encoding="UTF-8" standalone="no"?>
<!-- Created with Inkscape (http://www.inkscape.org/) -->

<svg
   xmlns:dc="http://purl.org/dc/elements/1.1/"
   xmlns:cc="http://creativecommons.org/ns#"
   xmlns:rdf="http://www.w3.org/1999/02/22-rdf-syntax-ns#"
   xmlns:svg="http://www.w3.org/2000/svg"
   xmlns="http://www.w3.org/2000/svg"
   xmlns:sodipodi="http://sodipodi.sourceforge.net/DTD/sodipodi-0.dtd"
   xmlns:inkscape="http://www.inkscape.org/namespaces/inkscape"
   width="66.599998mm"
   height="18.5mm"
   viewBox="0 0 66.599998 18.5"
   version="1.1"
   id="svg8"
   inkscape:version="0.92.1 r15371"
   sodipodi:docname="Poste Italiane.svg">
  <defs
     id="defs2" />
  <sodipodi:namedview
     id="base"
     pagecolor="#ffffff"
     bordercolor="#666666"
     borderopacity="1.0"
     inkscape:pageopacity="0.0"
     inkscape:pageshadow="2"
     inkscape:zoom="1.4142136"
     inkscape:cx="79.127116"
     inkscape:cy="-33.335081"
     inkscape:document-units="mm"
     inkscape:current-layer="layer1"
     showgrid="false"
     fit-margin-top="0"
     fit-margin-left="0"
     fit-margin-right="0"
     fit-margin-bottom="0"
     inkscape:window-width="1600"
     inkscape:window-height="837"
     inkscape:window-x="-8"
     inkscape:window-y="-8"
     inkscape:window-maximized="1" />
  <metadata
     id="metadata5">
    <rdf:RDF>
      <cc:Work
         rdf:about="">
        <dc:format>image/svg+xml</dc:format>
        <dc:type
           rdf:resource="http://purl.org/dc/dcmitype/StillImage" />
        <dc:title></dc:title>
      </cc:Work>
    </rdf:RDF>
  </metadata>
  <g
     inkscape:label="Livello 1"
     inkscape:groupmode="layer"
     id="layer1"
     transform="translate(40.766277,-34.512127)">
    <rect
       style="fill:#eedc00;fill-opacity:1;stroke-width:0.2649394"
       id="rect4496"
       width="66.599998"
       height="18.5"
       x="-40.766277"
       y="34.512127" />
    <g
       transform="matrix(0.28623924,0,0,-0.28573313,-35.053431,71.300443)"
       id="g10"
       style="fill:#0047bb;fill-opacity:1">
      <g
         transform="scale(0.1)"
         id="g12"
         style="fill:#0047bb;fill-opacity:1">
        <path
           inkscape:connector-curvature="0"
           id="path16"
           style="fill:#0047bb;fill-opacity:1;fill-rule:evenodd;stroke:none"
           d="m 814.867,919.859 c -0.304,-19.902 4.903,-37.058 26.649,-37.058 16.23,0 26.336,7.668 28.484,22.058 h 53.906 c -1.84,-19.91 -14.406,-34.304 -29.101,-42.879 -13.477,-8.574 -30.633,-11.945 -48.7,-11.945 -61.558,0 -86.058,26.34 -86.058,86.672 0,48.695 36.441,76.263 82.691,76.263 62.485,0 82.387,-35.837 82.387,-93.111 z M 870,951.109 c 0,8.27 -2.461,16.539 -7.047,22.965 -4.594,6.43 -11.332,10.422 -20.215,9.797 -20.215,-0.91 -25.109,-15.312 -26.644,-32.762 H 870" />
        <path
           inkscape:connector-curvature="0"
           id="path18"
           style="fill:#0047bb;fill-opacity:1;fill-rule:evenodd;stroke:none"
           d="M 85.0391,854.633 V 1075.76 H 186.723 c 54.207,0 89.742,-17.46 89.742,-71.05 0,-53.601 -35.535,-71.062 -89.742,-71.062 H 146.297 V 854.633 Z M 177.84,976.527 c 24.195,0.918 34.305,11.942 34.305,28.183 0,16.22 -10.11,27.25 -34.305,28.17 h -31.543 v -56.353 h 31.543" />
        <path
           inkscape:connector-curvature="0"
           id="path20"
           style="fill:#0047bb;fill-opacity:1;fill-rule:evenodd;stroke:none"
           d="m 457.387,931.5 c 0,-56.652 -41.348,-81.465 -89.438,-81.465 -48.078,0 -89.429,24.813 -89.429,81.465 0,56.664 41.351,81.47 89.429,81.47 48.09,0 89.438,-24.806 89.438,-81.47 z m -89.438,-47.773 c 24.512,0 29.715,26.027 29.715,47.773 0,21.746 -5.203,47.781 -29.715,47.781 -24.492,0 -29.699,-26.035 -29.699,-47.781 0,-21.746 5.207,-47.773 29.699,-47.773" />
        <path
           inkscape:connector-curvature="0"
           id="path22"
           style="fill:#0047bb;fill-opacity:1;fill-rule:evenodd;stroke:none"
           d="m 558.77,960.91 c 0,5.207 -0.918,9.797 -3.672,12.856 -3.067,3.367 -7.961,5.515 -15.93,5.515 -8.574,0 -13.777,-4.894 -13.777,-13.785 0,-11.324 23.582,-10.715 60.027,-22.051 18.375,-5.812 30.934,-17.152 30.934,-42.265 0,-40.735 -38.289,-51.145 -73.508,-51.145 -37.668,0 -74.422,7.649 -74.114,54.516 h 55.125 c -0.917,-4.594 0.618,-9.801 3.985,-13.781 3.371,-3.981 8.265,-7.043 13.781,-7.043 11.336,0 19.598,4.285 19.598,14.086 0,27.261 -90.961,11.031 -90.961,66.769 0,37.968 40.426,48.388 71.051,48.388 36.453,0 70.144,-9.49 72.593,-52.06 H 558.77" />
        <path
           inkscape:connector-curvature="0"
           id="path24"
           style="fill:#0047bb;fill-opacity:1;fill-rule:evenodd;stroke:none"
           d="m 654.68,1008.38 v 23.28 l 58.183,22.05 v -45.33 h 33.7 v -36.755 h -33.7 V 910.68 c 0,-3.985 -2.433,-23.891 11.039,-23.891 7.649,0 15.618,0 22.356,0.914 v -34.598 c -13.172,-2.46 -22.664,-3.07 -31.254,-3.07 -39.496,0 -63.391,5.512 -60.324,52.676 v 68.914 h -30.016 v 36.755 h 30.016" />
        <path
           inkscape:connector-curvature="0"
           id="path26"
           style="fill:#0047bb;fill-opacity:1;fill-rule:evenodd;stroke:none"
           d="m 950.25,1009.93 h 29.184 V 855.695 H 950.25 Z m -2.766,67.59 h 34.719 v -31.65 h -34.719 v 31.65" />
        <path
           inkscape:connector-curvature="0"
           id="path28"
           style="fill:#0047bb;fill-opacity:1;fill-rule:evenodd;stroke:none"
           d="m 1026.26,1009.93 v 32.87 l 29.17,9.22 v -42.09 l 35.65,0.92 v -21.819 l -35.65,0.317 v -99.559 c 0,-11.047 8.62,-16.269 19.06,-16.269 4.62,0 10.75,0.601 15.37,1.828 v -22.426 c -6.77,-0.309 -13.22,-1.852 -19.98,-1.852 -7.06,0 -12.59,0.313 -19.67,1.543 -4.59,0.914 -12.28,3.383 -17.2,10.141 -5.22,7.371 -6.75,7.988 -6.75,28.57 v 98.024 l -26.432,-0.317 v 21.819 l 26.432,-0.92" />
        <path
           inkscape:connector-curvature="0"
           id="path30"
           style="fill:#0047bb;fill-opacity:1;fill-rule:evenodd;stroke:none"
           d="m 1205.67,950.93 c 0,26.742 -1.53,42.414 -32.57,42.414 -14.74,0 -28.57,-8.617 -28.87,-24.59 h -30.73 c 1.53,33.796 27.96,45.786 58.37,45.786 31.65,0 62.99,-9.53 62.99,-52.54 v -73.742 c 0,-6.754 0.32,-19.664 1.23,-32.563 h -19.66 c -2.78,0 -8,-1.535 -8.3,2.149 -0.61,7.062 -1.23,13.816 -1.54,20.898 h -0.62 c -9.51,-19.359 -26.72,-27.672 -47.92,-27.672 -26.73,0 -53.77,13.836 -53.77,43.938 0,43.332 38.42,55.922 74.97,55.922 z m -29.17,-20.278 c -17.83,-0.918 -41.49,-7.367 -41.49,-29.8 0,-19.047 13.21,-28.571 30.41,-28.571 34.42,0 40.87,29.801 40.25,58.371 h -29.17" />
        <path
           inkscape:connector-curvature="0"
           id="path32"
           style="fill:#0047bb;fill-opacity:1;fill-rule:evenodd;stroke:none"
           d="m 1263.89,1077.52 h 29.17 V 855.695 h -29.17 v 221.825" />
        <path
           inkscape:connector-curvature="0"
           id="path34"
           style="fill:#0047bb;fill-opacity:1;fill-rule:evenodd;stroke:none"
           d="m 1329.36,1009.93 h 29.2 V 855.695 h -29.2 z m -2.76,67.59 h 34.72 v -31.65 h -34.72 v 31.65" />
        <path
           inkscape:connector-curvature="0"
           id="path36"
           style="fill:#0047bb;fill-opacity:1;fill-rule:evenodd;stroke:none"
           d="m 1486.28,950.93 c 0,26.742 -1.53,42.414 -32.57,42.414 -14.75,0 -28.57,-8.617 -28.87,-24.59 h -30.74 c 1.54,33.796 27.97,45.786 58.38,45.786 31.64,0 62.99,-9.53 62.99,-52.54 v -73.742 c 0,-6.754 0.3,-19.664 1.23,-32.563 h -19.67 c -2.77,0 -7.99,-1.535 -8.3,2.149 -0.61,7.062 -1.22,13.816 -1.53,20.898 h -0.62 c -9.51,-19.359 -26.72,-27.672 -47.93,-27.672 -26.72,0 -53.76,13.836 -53.76,43.938 0,43.332 38.4,55.922 74.97,55.922 z m -29.19,-20.278 c -17.82,-0.918 -41.48,-7.367 -41.48,-29.8 0,-19.047 13.21,-28.571 30.42,-28.571 34.41,0 40.86,29.801 40.25,58.371 h -29.19" />
        <path
           inkscape:connector-curvature="0"
           id="path38"
           style="fill:#0047bb;fill-opacity:1;fill-rule:evenodd;stroke:none"
           d="m 1574.25,987.184 h 0.61 c 9.84,19.356 31.34,27.356 46.7,27.356 10.75,0 58.38,-2.77 58.38,-52.235 v -106.61 h -29.19 v 97.078 c 0,25.504 -10.75,39.34 -35.32,39.34 -0.01,0 -15.99,0.918 -28.28,-11.375 -4.3,-4.3 -12.29,-11.07 -12.29,-41.168 v -83.875 h -29.18 v 154.235 h 28.57 v -22.746" />
        <path
           inkscape:connector-curvature="0"
           id="path40"
           style="fill:#0047bb;fill-opacity:1;fill-rule:evenodd;stroke:none"
           d="m 1733.75,927.273 c -2.16,-27.039 8.91,-54.992 38.71,-54.992 22.73,0 34.11,8.907 37.49,31.34 h 30.72 c -4.6,-35.027 -31.64,-52.551 -68.52,-52.551 -49.46,0 -69.12,35.028 -69.12,80.5 0,45.176 22.73,82.97 71.58,82.97 46.09,-0.93 67.91,-30.114 67.91,-72.821 v -14.446 z m 78.04,20.278 c 0.62,25.816 -11.06,45.793 -39.33,45.793 -24.27,0 -38.71,-20.594 -38.71,-45.793 h 78.04" />
      </g>
    </g>
  </g>
</svg>
